<?xml version="1.0" encoding="UTF-8"?>
<svg version="1.1" xmlns="http://www.w3.org/2000/svg" width="64" height="64">
<path d="M0 0 C13.2 0 26.4 0 40 0 C40 17.16 40 34.32 40 52 C26.8 52 13.6 52 0 52 C0 34.84 0 17.68 0 0 Z M3 2 C2.67 2.66 2.34 3.32 2 4 C13.88 4 25.76 4 38 4 C37.505 3.01 37.505 3.01 37 2 C25.78 2 14.56 2 3 2 Z M2 7 C1.8988308 10.09081465 1.86031442 13.15882555 1.8671875 16.25 C1.86623077 17.17844727 1.86527405 18.10689453 1.86428833 19.06347656 C1.86360645 21.03059965 1.86546128 22.99772496 1.86962891 24.96484375 C1.87497705 27.98703026 1.86968418 31.00906815 1.86328125 34.03125 C1.86394203 35.93750033 1.86522319 37.84375057 1.8671875 39.75 C1.86516327 40.66040039 1.86313904 41.57080078 1.86105347 42.50878906 C1.46108668 46.57663678 1.46108668 46.57663678 3 50 C4.85369611 50.08737645 6.71067541 50.10698153 8.56640625 50.09765625 C9.69111328 50.09443359 10.81582031 50.09121094 11.97460938 50.08789062 C13.75061523 50.07532227 13.75061523 50.07532227 15.5625 50.0625 C16.75037109 50.05798828 17.93824219 50.05347656 19.16210938 50.04882812 C22.10812226 50.03699675 25.05403681 50.02051287 28 50 C28 46.7 28 43.4 28 40 C31.3 40 34.6 40 38 40 C38.02465288 35.31860746 38.04283739 30.63725241 38.05493164 25.95581055 C38.05997157 24.36205386 38.0668035 22.76830181 38.07543945 21.17456055 C38.08751999 18.88849747 38.09323155 16.60249533 38.09765625 14.31640625 C38.10281754 13.59973282 38.10797882 12.88305939 38.11329651 12.14466858 C38.11349263 10.42936328 38.06192007 8.71418734 38 7 C36.2670702 5.2670702 34.03785664 5.87179954 31.72851562 5.86105347 C30.99310547 5.8630777 30.25769531 5.86510193 29.5 5.8671875 C28.74912109 5.86623077 27.99824219 5.86527405 27.22460938 5.86428833 C25.63411373 5.86360662 24.04361533 5.86546028 22.453125 5.86962891 C20.01035345 5.87497733 17.56776579 5.86968366 15.125 5.86328125 C13.58333293 5.86394203 12.04166597 5.8652232 10.5 5.8671875 C9.76458984 5.86516327 9.02917969 5.86313904 8.27148438 5.86105347 C4.84753658 5.56943487 4.84753658 5.56943487 2 7 Z M30 43 C29.95907063 45.33297433 29.95758277 47.66705225 30 50 C32.33294775 50.04241723 34.66702567 50.04092937 37 50 C38.41577477 48.81575674 38.41577477 48.81575674 38.0625 45.4375 C38.041875 44.303125 38.02125 43.16875 38 42 C33.67679914 41.49633499 33.67679914 41.49633499 30 43 Z " fill="#6A4AFF" transform="translate(12,6)"/>
<path d="M0 0 C0.99 0.99 1.98 1.98 3 3 C0.81301332 5.52732466 -1.38731695 7.90768536 -4 10 C-6.8125 10.1875 -6.8125 10.1875 -9 9 C-10.3125 6.9375 -10.3125 6.9375 -11 5 C-9.68 5 -8.36 5 -7 5 C-4.04408729 3.83554954 -2.1290142 2.34191563 0 0 Z " fill="#823FFF" transform="translate(29,32)"/>
<path d="M0 0 C0.99 0.99 1.98 1.98 3 3 C0.81301332 5.52732466 -1.38731695 7.90768536 -4 10 C-6.8125 10.1875 -6.8125 10.1875 -9 9 C-10.3125 6.9375 -10.3125 6.9375 -11 5 C-9.68 5 -8.36 5 -7 5 C-4.04408729 3.83554954 -2.1290142 2.34191563 0 0 Z " fill="#4F55FF" transform="translate(29,16)"/>
<path d="M0 0 C3.96 0 7.92 0 12 0 C12 0.66 12 1.32 12 2 C8.04 2 4.08 2 0 2 C0 1.34 0 0.68 0 0 Z " fill="#863EFF" transform="translate(34,38)"/>
<path d="M0 0 C3.96 0 7.92 0 12 0 C12 0.66 12 1.32 12 2 C8.04 2 4.08 2 0 2 C0 1.34 0 0.68 0 0 Z " fill="#7A43FF" transform="translate(34,34)"/>
<path d="M0 0 C3.96 0 7.92 0 12 0 C12 0.66 12 1.32 12 2 C8.04 2 4.08 2 0 2 C0 1.34 0 0.68 0 0 Z " fill="#5454FF" transform="translate(34,22)"/>
<path d="M0 0 C3.96 0 7.92 0 12 0 C12 0.66 12 1.32 12 2 C8.04 2 4.08 2 0 2 C0 1.34 0 0.68 0 0 Z " fill="#4759FF" transform="translate(34,18)"/>
<path d="M0 0 C1.32 0 2.64 0 4 0 C4 1.32 4 2.64 4 4 C2.68 4 1.36 4 0 4 C0 2.68 0 1.36 0 0 Z " fill="#A3BAFF" transform="translate(44,50)"/>
</svg>
